<?xml version="1.0" standalone="no"?>
<!DOCTYPE svg PUBLIC "-//W3C//DTD SVG 20010904//EN"
 "http://www.w3.org/TR/2001/REC-SVG-20010904/DTD/svg10.dtd">
<svg version="1.0" xmlns="http://www.w3.org/2000/svg"
 width="716.000000pt" height="357.000000pt" viewBox="0 0 716.000000 357.000000"
 preserveAspectRatio="xMidYMid meet">

<g transform="translate(0.000000,357.000000) scale(0.100000,-0.100000)"
fill="#000000" stroke="none">
<path d="M3680 3545 l0 -25 -1277 0 c-703 -1 -1531 0 -1840 0 l-563 1 0 -1756
0 -1755 1442 -2 c1611 -2 1621 -2 1981 0 l257 2 0 111 c0 105 -1 111 -17 98
-16 -13 -17 -12 -4 3 13 17 108 18 1757 18 l1744 0 0 1665 0 1665 -1740 0
-1740 0 0 -25z m-2697 -42 c-7 -2 -19 -2 -25 0 -7 3 -2 5 12 5 14 0 19 -2 13
-5z m260 0 c-7 -2 -21 -2 -30 0 -10 3 -4 5 12 5 17 0 24 -2 18 -5z m-326 -9
c-3 -3 -12 -4 -19 -1 -8 3 -5 6 6 6 11 1 17 -2 13 -5z m3290 -20 c-3 -3 -12
-4 -19 -1 -8 3 -5 6 6 6 11 1 17 -2 13 -5z m2154 -121 c13 -16 12 -17 -3 -4
-10 7 -18 15 -18 17 0 8 8 3 21 -13z m-2671 -27 c0 -2 -8 -10 -17 -17 -16 -13
-17 -12 -4 4 13 16 21 21 21 13z m875 -16 c10 -11 16 -20 13 -20 -3 0 -13 9
-23 20 -10 11 -16 20 -13 20 3 0 13 -9 23 -20z m1042 -6 c-3 -3 -12 -4 -19 -1
-8 3 -5 6 6 6 11 1 17 -2 13 -5z m170 0 c-3 -3 -12 -4 -19 -1 -8 3 -5 6 6 6
11 1 17 -2 13 -5z m-5357 -27 c0 -2 -10 -12 -22 -23 l-23 -19 19 23 c18 21 26
27 26 19z m4191 -14 c13 -16 12 -17 -3 -4 -17 13 -22 21 -14 21 2 0 10 -8 17
-17z m829 7 c-8 -5 -22 -9 -30 -9 -10 0 -8 3 5 9 27 12 43 12 25 0z m-1820
-14 c0 -2 -8 -10 -17 -17 -16 -13 -17 -12 -4 4 13 16 21 21 21 13z m-792 -33
c-21 -2 -57 -2 -80 0 -24 2 -7 4 37 4 44 0 63 -2 43 -4z m-1710 -30 c-10 -2
-26 -2 -35 0 -10 3 -2 5 17 5 19 0 27 -2 18 -5z m2975 -10 c-7 -2 -19 -2 -25
0 -7 3 -2 5 12 5 14 0 19 -2 13 -5z m717 -17 c0 -2 -8 -10 -17 -17 -16 -13
-17 -12 -4 4 13 16 21 21 21 13z m-4530 -29 c0 -2 -10 -12 -22 -23 l-23 -19
19 23 c18 21 26 27 26 19z m3996 -13 c18 -14 18 -14 -6 -3 -31 14 -36 19 -24
19 6 0 19 -7 30 -16z m884 12 c0 -2 -8 -10 -17 -17 -16 -13 -17 -12 -4 4 13
16 21 21 21 13z m1091 -33 c13 -16 12 -17 -3 -4 -10 7 -18 15 -18 17 0 8 8 3
21 -13z m-1141 -6 c0 -2 -10 -12 -22 -23 l-23 -19 19 23 c18 21 26 27 26 19z
m-1210 -10 c0 -2 -15 -16 -32 -33 l-33 -29 29 33 c28 30 36 37 36 29z m2980
-13 c64 -26 89 -98 56 -163 -36 -68 -149 -69 -189 -1 -36 60 -14 133 48 161
48 22 37 22 85 3z m-2519 -11 c13 -16 12 -17 -3 -4 -10 7 -18 15 -18 17 0 8 8
3 21 -13z m-2101 -16 c0 -2 -10 -12 -22 -23 l-23 -19 19 23 c18 21 26 27 26
19z m2800 0 c0 -2 -12 -14 -27 -28 l-28 -24 24 28 c23 25 31 32 31 24z m-1655
-77 c10 -11 16 -20 13 -20 -3 0 -13 9 -23 20 -10 11 -16 20 -13 20 3 0 13 -9
23 -20z m2412 -42 c-3 -8 -6 -5 -6 6 -1 11 2 17 5 13 3 -3 4 -12 1 -19z
m-1357 -18 c0 -11 -2 -20 -4 -20 -2 0 -6 9 -9 20 -3 11 -1 20 4 20 5 0 9 -9 9
-20z m-3950 6 c0 -2 -8 -10 -17 -17 -16 -13 -17 -12 -4 4 13 16 21 21 21 13z
m1100 -83 c0 -8 -9 0 -50 45 l-45 47 48 -45 c26 -24 47 -45 47 -47z m4480 75
c0 -7 18 -125 38 -263 l38 -250 27 -3 c34 -4 44 8 132 153 110 180 91 166 169
125 36 -19 66 -38 66 -41 0 -3 -33 -53 -73 -110 -39 -57 -80 -117 -90 -132
l-18 -28 63 -72 c35 -39 100 -114 146 -165 46 -52 81 -96 78 -99 -5 -6 -189
-34 -192 -30 -1 3 -132 180 -141 192 -5 6 -21 27 -36 48 -23 30 -34 37 -63 37
-22 0 -37 -6 -41 -15 -3 -9 4 -78 16 -153 12 -75 21 -140 21 -143 0 -7 -160
-33 -165 -27 -8 9 -147 959 -142 965 7 6 94 20 135 22 19 1 32 -4 32 -11z
m-5027 -15 c-7 -2 -19 -2 -25 0 -7 3 -2 5 12 5 14 0 19 -2 13 -5z m94 1 c-3
-3 -12 -4 -19 -1 -8 3 -5 6 6 6 11 1 17 -2 13 -5z m-150 -10 c-3 -3 -12 -4
-19 -1 -8 3 -5 6 6 6 11 1 17 -2 13 -5z m210 0 c-3 -3 -12 -4 -19 -1 -8 3 -5
6 6 6 11 1 17 -2 13 -5z m-170 -40 c-3 -3 -12 -4 -19 -1 -8 3 -5 6 6 6 11 1
17 -2 13 -5z m126 -1 c-7 -2 -19 -2 -25 0 -7 3 -2 5 12 5 14 0 19 -2 13 -5z
m3294 -55 c-2 -13 -4 -3 -4 22 0 25 2 35 4 23 2 -13 2 -33 0 -45z m434 39
c-10 -9 -11 -8 -5 6 3 10 9 15 12 12 3 -3 0 -11 -7 -18z m-1134 -34 c-3 -10
-5 -2 -5 17 0 19 2 27 5 18 2 -10 2 -26 0 -35z m-2462 7 c3 -6 -1 -7 -9 -4
-18 7 -21 14 -7 14 6 0 13 -4 16 -10z m5184 -13 c0 -9 -2 -8 -6 1 -2 6 -10 9
-15 6 -7 -4 -8 -2 -4 5 9 13 26 5 25 -12z m-5033 -39 l29 -33 -32 29 c-18 17
-33 31 -33 33 0 8 8 1 36 -29z m-686 18 c0 -2 -8 -10 -17 -17 -16 -13 -17 -12
-4 4 13 16 21 21 21 13z m3717 -28 c-3 -8 -6 -5 -6 6 -1 11 2 17 5 13 3 -3 4
-12 1 -19z m2522 -298 c22 -162 42 -310 43 -329 l3 -35 -80 -12 c-44 -7 -80
-12 -81 -11 -1 1 -12 67 -24 147 -12 80 -30 199 -40 265 -11 66 -19 124 -20
128 0 5 -26 6 -59 2 -55 -6 -59 -5 -64 17 -4 13 -7 34 -7 48 0 24 5 27 138 56
75 17 140 29 143 25 4 -3 25 -139 48 -301z m-2559 253 c-11 -17 -11 -17 -6 0
3 10 7 26 7 35 1 15 2 15 6 0 2 -10 -1 -25 -7 -35z m-2715 -61 c-3 -3 -11 0
-18 7 -9 10 -8 11 6 5 10 -3 15 -9 12 -12z m2085 -7 c14 -19 14 -19 -2 -6 -10
7 -18 18 -18 24 0 6 1 8 3 6 1 -2 9 -13 17 -24z m1733 -2 c-13 -2 -33 -2 -45
0 -13 2 -3 4 22 4 25 0 35 -2 23 -4z m-4035 -74 c-3 -8 -7 -3 -11 10 -4 17 -3
21 5 13 5 -5 8 -16 6 -23z m2353 14 c13 -16 12 -17 -3 -4 -17 13 -22 21 -14
21 2 0 10 -8 17 -17z m1900 -40 c13 -16 12 -17 -3 -4 -10 7 -18 15 -18 17 0 8
8 3 21 -13z m-3894 -15 c-3 -8 -6 -5 -6 6 -1 11 2 17 5 13 3 -3 4 -12 1 -19z
m3748 3 c84 -39 116 -96 134 -236 27 -210 33 -244 51 -260 13 -12 23 -13 44
-5 15 5 29 10 30 10 5 0 56 -76 56 -83 0 -5 -24 -19 -52 -32 -65 -31 -130 -32
-181 -5 -20 11 -39 20 -41 20 -1 0 -16 -12 -32 -26 -15 -15 -46 -35 -69 -45
-50 -23 -164 -25 -205 -4 -71 37 -109 137 -85 227 21 83 95 142 228 183 l72
22 -2 41 c-4 98 -45 112 -155 55 -88 -45 -73 -50 -127 40 l-23 37 58 27 c120
55 227 67 299 34z m1472 -3 c-3 -8 -6 -5 -6 6 -1 11 2 17 5 13 3 -3 4 -12 1
-19z m-6770 -10 c-3 -8 -6 -5 -6 6 -1 11 2 17 5 13 3 -3 4 -12 1 -19z m4790
-10 c-3 -8 -6 -5 -6 6 -1 11 2 17 5 13 3 -3 4 -12 1 -19z m-4670 -110 c-2 -18
-4 -4 -4 32 0 36 2 50 4 33 2 -18 2 -48 0 -65z m6660 60 c-3 -8 -6 -5 -6 6 -1
11 2 17 5 13 3 -3 4 -12 1 -19z m-6440 -50 c-2 -13 -4 -3 -4 22 0 25 2 35 4
23 2 -13 2 -33 0 -45z m4377 -60 c63 -422 76 -539 66 -605 -23 -163 -132 -256
-316 -270 -81 -6 -164 3 -164 19 0 5 7 35 16 65 14 49 18 54 37 48 12 -4 49
-9 82 -12 120 -9 177 42 184 164 2 40 0 73 -3 73 -3 0 -26 -16 -51 -35 -87
-66 -216 -65 -277 2 -24 27 -48 87 -59 152 -20 109 -67 436 -64 439 7 7 166
29 169 23 2 -3 16 -91 31 -196 39 -274 44 -295 71 -321 30 -31 66 -30 121 1
47 28 51 43 33 120 -9 39 -55 337 -62 400 -3 30 -2 30 62 41 115 21 103 30
124 -108z m-947 106 c-3 -3 -12 -4 -19 -1 -8 3 -5 6 6 6 11 1 17 -2 13 -5z
m46 -1 c-7 -2 -19 -2 -25 0 -7 3 -2 5 12 5 14 0 19 -2 13 -5z m1754 -45 c-3
-8 -6 -5 -6 6 -1 11 2 17 5 13 3 -3 4 -12 1 -19z m-3206 -1 c-6 -8 -7 -18 -3
-22 4 -5 2 -5 -5 -1 -14 8 -6 36 9 36 7 0 6 -5 -1 -13z m1696 -59 c-3 -13 -9
-44 -12 -70 l-7 -48 -42 0 c-29 0 -53 -8 -75 -24 -61 -45 -63 -54 -46 -153 26
-153 56 -355 53 -358 -8 -6 -151 -25 -156 -21 -7 8 -94 510 -105 610 -2 19 30
35 100 50 29 7 32 5 43 -31 19 -57 26 -59 50 -14 29 57 71 81 144 81 55 0 58
-1 53 -22z m-1506 0 c0 -2 8 -48 18 -103 l17 -100 29 1 c17 0 52 3 80 5 l49 4
8 -44 c4 -25 6 -47 4 -49 -3 -2 -37 -9 -76 -15 l-72 -11 6 -45 c19 -152 48
-330 57 -353 19 -46 43 -45 111 5 l28 21 34 -40 c20 -21 35 -44 36 -50 0 -15
-66 -58 -115 -74 -63 -21 -146 -17 -188 9 -53 33 -72 85 -107 291 -17 102 -32
190 -35 196 -2 8 -17 9 -44 4 -45 -8 -47 -6 -53 64 -3 28 0 31 38 38 47 10 47
10 60 150 l6 78 37 6 c20 3 41 7 46 9 13 4 25 6 26 3z m-201 -53 c0 -8 -2 -15
-4 -15 -2 0 -6 7 -10 15 -3 8 -1 15 4 15 6 0 10 -7 10 -15z m-19 -42 c13 -16
12 -17 -3 -4 -17 13 -22 21 -14 21 2 0 10 -8 17 -17z m1106 -63 c7 -41 24
-150 38 -243 13 -92 29 -176 35 -187 12 -22 49 -27 67 -9 7 7 19 -1 42 -29 17
-22 31 -43 31 -46 0 -3 -23 -17 -52 -32 -64 -32 -146 -31 -194 3 l-30 21 -32
-33 c-48 -48 -97 -69 -167 -69 -125 0 -178 62 -210 244 -39 221 -60 372 -54
375 14 9 150 28 156 22 7 -8 48 -241 63 -366 16 -125 48 -170 111 -154 66 17
101 66 88 123 -7 27 -37 207 -72 425 -2 10 104 34 143 32 23 -2 25 -8 37 -77z
m-1277 46 c-5 -14 -13 -33 -19 -43 -5 -10 -43 -94 -84 -188 l-74 -170 73 -80
c40 -44 72 -81 70 -82 -1 -1 -105 -18 -231 -37 -127 -20 -245 -38 -262 -41
-21 -4 -33 -2 -33 5 0 6 16 46 36 90 36 79 36 79 17 103 -16 21 -129 147 -198
221 -48 52 -49 55 -21 66 14 5 26 15 26 21 0 8 4 8 15 -1 8 -6 20 -8 26 -4 9
5 10 1 7 -14 -7 -26 13 -30 37 -6 9 9 25 14 35 11 11 -3 18 -2 16 2 -3 4 4 12
15 19 17 11 19 9 19 -13 0 -14 5 -25 10 -25 6 0 10 7 10 15 0 20 10 19 26 -2
13 -17 13 -17 14 2 0 16 2 17 10 5 12 -19 23 -8 14 14 -4 11 -13 15 -28 11
-15 -5 -17 -4 -7 3 11 8 10 16 -10 43 -37 54 6 14 49 -45 59 -81 94 -108 108
-84 4 7 3 8 -4 4 -16 -10 -15 -5 9 56 12 29 28 75 36 101 8 27 16 47 19 44 2
-2 0 -17 -6 -32 -6 -16 -9 -34 -6 -42 3 -7 2 -13 -2 -13 -8 0 -32 -58 -32 -75
0 -17 29 30 30 48 0 15 3 16 20 7 16 -8 29 -8 51 2 l30 13 -28 6 c-26 6 -25 7
10 8 20 0 37 6 37 12 0 6 17 9 43 7 40 -3 42 -5 40 -33 -1 -16 1 -22 4 -12 3
11 11 16 19 13 8 -3 13 -2 10 3 -3 5 3 20 14 34 11 13 24 36 30 51 5 14 12 26
15 26 2 0 0 -11 -5 -24z m2780 20 c0 -2 -8 -10 -17 -17 -16 -13 -17 -12 -4 4
13 16 21 21 21 13z m-3320 -21 c7 -9 8 -15 2 -15 -5 0 -12 7 -16 15 -3 8 -4
15 -2 15 2 0 9 -7 16 -15z m-522 -55 c99 -60 60 -200 -55 -200 -63 0 -103 40
-103 103 0 93 82 143 158 97z m213 3 c13 -16 12 -17 -3 -4 -10 7 -18 15 -18
17 0 8 8 3 21 -13z m33 -39 c3 -8 2 -12 -4 -9 -6 3 -10 10 -10 16 0 14 7 11
14 -7z m66 -56 c0 -12 -14 -10 -28 4 -19 19 -14 29 8 16 11 -7 20 -16 20 -20z
m2647 26 c-3 -3 -12 -4 -19 -1 -8 3 -5 6 6 6 11 1 17 -2 13 -5z m-440 -116
c-3 -8 -6 -5 -6 6 -1 11 2 17 5 13 3 -3 4 -12 1 -19z m-2246 -35 c13 -16 12
-17 -3 -4 -10 7 -18 15 -18 17 0 8 8 3 21 -13z m5216 11 c-3 -3 -12 -4 -19 -1
-8 3 -5 6 6 6 11 1 17 -2 13 -5z m-60 -10 c-3 -3 -12 -4 -19 -1 -8 3 -5 6 6 6
11 1 17 -2 13 -5z m-520 -36 c-3 -8 -6 -5 -6 6 -1 11 2 17 5 13 3 -3 4 -12 1
-19z m-5646 -5 c13 -16 12 -17 -3 -4 -10 7 -18 15 -18 17 0 8 8 3 21 -13z
m1009 4 c0 -1 -24 -25 -52 -52 l-53 -50 50 53 c46 48 55 57 55 49z m-1100 -94
c0 -8 -9 0 -50 45 l-45 47 48 -45 c26 -24 47 -45 47 -47z m5653 40 c-7 -2 -19
-2 -25 0 -7 3 -2 5 12 5 14 0 19 -2 13 -5z m57 -38 c-24 -25 -46 -45 -49 -45
-3 0 15 20 39 45 24 25 46 45 49 45 3 0 -15 -20 -39 -45z m-4810 29 c0 -5 22
-145 76 -477 14 -88 24 -161 21 -163 -4 -5 -157 -32 -157 -28 0 13 -90 528
-93 530 -1 1 -24 -2 -52 -6 -27 -4 -53 -5 -56 -2 -4 4 -10 26 -14 48 l-6 41
98 22 c54 13 112 26 128 31 38 10 55 12 55 4z m4617 -10 c-3 -3 -12 -4 -19 -1
-8 3 -5 6 6 6 11 1 17 -2 13 -5z m-900 -51 c-3 -10 -5 -4 -5 12 0 17 2 24 5
18 2 -7 2 -21 0 -30z m-4987 -43 c0 -5 -5 -10 -11 -10 -5 0 -7 5 -4 10 3 6 8
10 11 10 2 0 4 -4 4 -10z m746 -9 c74 -45 96 -103 129 -329 9 -62 20 -124 26
-139 9 -23 13 -25 48 -19 36 5 41 3 65 -29 15 -19 24 -40 21 -45 -4 -6 -25
-20 -47 -31 -62 -32 -156 -24 -199 16 -44 42 -54 68 -73 175 -44 256 -44 254
-71 278 -14 12 -31 22 -38 22 -20 0 -75 -38 -90 -62 -16 -26 -15 -35 32 -329
l27 -166 -61 -12 c-108 -19 -98 -30 -124 137 -13 81 -27 163 -31 182 -5 19
-14 61 -20 93 -21 104 -74 126 -140 59 l-38 -37 13 -80 c19 -116 56 -357 58
-379 2 -17 -9 -21 -78 -32 -44 -7 -80 -12 -81 -11 -1 1 -13 76 -28 167 -15 91
-38 230 -51 310 -14 80 -25 148 -25 152 0 4 26 15 58 24 31 9 62 19 68 21 7 2
17 -12 24 -31 6 -20 13 -36 14 -36 2 0 21 17 44 39 70 67 170 77 247 25 l38
-25 30 37 c17 20 49 45 71 55 55 25 141 25 182 0z m-879 -53 c-3 -8 -6 -5 -6
6 -1 11 2 17 5 13 3 -3 4 -12 1 -19z m6443 -2 c0 -2 -8 -10 -17 -17 -16 -13
-17 -12 -4 4 13 16 21 21 21 13z m-70 -69 c0 -2 -10 -12 -22 -23 l-23 -19 19
23 c18 21 26 27 26 19z m-643 -43 c-3 -3 -12 -4 -19 -1 -8 3 -5 6 6 6 11 1 17
-2 13 -5z m-4037 -8 c0 -2 -8 -10 -17 -17 -16 -13 -17 -12 -4 4 13 16 21 21
21 13z m3928 -3 c-15 -2 -42 -2 -60 0 -18 2 -6 4 27 4 33 0 48 -2 33 -4z
m-5651 -80 c-3 -10 -5 -2 -5 17 0 19 2 27 5 18 2 -10 2 -26 0 -35z m2951 -110
c-10 -2 -26 -2 -35 0 -10 3 -2 5 17 5 19 0 27 -2 18 -5z m1679 -9 c-3 -3 -12
-4 -19 -1 -8 3 -5 6 6 6 11 1 17 -2 13 -5z m-1806 -21 c13 -16 12 -17 -3 -4
-17 13 -22 21 -14 21 2 0 10 -8 17 -17z m1719 -7 c0 -2 -8 -10 -17 -17 -16
-13 -17 -12 -4 4 13 16 21 21 21 13z m-4459 -23 c13 -16 12 -17 -3 -4 -17 13
-22 21 -14 21 2 0 10 -8 17 -17z m4519 4 c0 -2 -10 -12 -22 -23 l-23 -19 19
23 c18 21 26 27 26 19z m1197 -3 c-3 -3 -12 -4 -19 -1 -8 3 -5 6 6 6 11 1 17
-2 13 -5z m-259 -11 c-10 -2 -26 -2 -35 0 -10 3 -2 5 17 5 19 0 27 -2 18 -5z
m175 0 c-7 -2 -19 -2 -25 0 -7 3 -2 5 12 5 14 0 19 -2 13 -5z m-5616 -55 c-3
-8 -6 -5 -6 6 -1 11 2 17 5 13 3 -3 4 -12 1 -19z m2849 -40 l29 -33 -32 29
c-31 28 -38 36 -30 36 2 0 16 -15 33 -32z m1247 5 c-7 -2 -19 -2 -25 0 -7 3
-2 5 12 5 14 0 19 -2 13 -5z m90 0 c-7 -2 -19 -2 -25 0 -7 3 -2 5 12 5 14 0
19 -2 13 -5z m-4176 -25 c-3 -8 -6 -5 -6 6 -1 11 2 17 5 13 3 -3 4 -12 1 -19z
m4060 -24 c-3 -3 -12 -4 -19 -1 -8 3 -5 6 6 6 11 1 17 -2 13 -5z m146 -1 c-7
-2 -19 -2 -25 0 -7 3 -2 5 12 5 14 0 19 -2 13 -5z m-1254 -87 c-2 -2 -13 8
-23 22 l-19 27 24 -22 c12 -12 21 -24 18 -27z m-832 12 c-3 -8 -6 -5 -6 6 -1
11 2 17 5 13 3 -3 4 -12 1 -19z m1460 -90 c-2 -18 -4 -6 -4 27 0 33 2 48 4 33
2 -15 2 -42 0 -60z m-1390 0 c-2 -13 -4 -3 -4 22 0 25 2 35 4 23 2 -13 2 -33
0 -45z m1120 0 c-2 -13 -4 -3 -4 22 0 25 2 35 4 23 2 -13 2 -33 0 -45z m-1947
48 c0 -2 -8 -10 -17 -17 -16 -13 -17 -12 -4 4 13 16 21 21 21 13z m1387 -12
c-3 -3 -12 -4 -19 -1 -8 3 -5 6 6 6 11 1 17 -2 13 -5z m-60 -10 c-3 -3 -12 -4
-19 -1 -8 3 -5 6 6 6 11 1 17 -2 13 -5z m1390 -40 c-3 -3 -12 -4 -19 -1 -8 3
-5 6 6 6 11 1 17 -2 13 -5z m106 -1 c-7 -2 -19 -2 -25 0 -7 3 -2 5 12 5 14 0
19 -2 13 -5z m-2066 -45 c-3 -7 -5 -2 -5 12 0 14 2 19 5 13 2 -7 2 -19 0 -25z
m1740 0 c-3 -8 -6 -5 -6 6 -1 11 2 17 5 13 3 -3 4 -12 1 -19z m-3630 -24 c-3
-3 -12 -4 -19 -1 -8 3 -5 6 6 6 11 1 17 -2 13 -5z m750 -131 c-3 -10 -5 -4 -5
12 0 17 2 24 5 18 2 -7 2 -21 0 -30z m-340 1 c-3 -3 -12 -4 -19 -1 -8 3 -5 6
6 6 11 1 17 -2 13 -5z m1210 -26 c-3 -8 -6 -5 -6 6 -1 11 2 17 5 13 3 -3 4
-12 1 -19z m704 -95 c13 -16 12 -17 -3 -4 -17 13 -22 21 -14 21 2 0 10 -8 17
-17z m759 -108 c-24 -25 -46 -45 -49 -45 -3 0 15 20 39 45 24 25 46 45 49 45
3 0 -15 -20 -39 -45z m-1010 -20 c13 -14 21 -25 18 -25 -2 0 -15 11 -28 25
-13 14 -21 25 -18 25 2 0 15 -11 28 -25z m-803 -41 c-3 -3 -12 -4 -19 -1 -8 3
-5 6 6 6 11 1 17 -2 13 -5z m110 0 c-3 -3 -12 -4 -19 -1 -8 3 -5 6 6 6 11 1
17 -2 13 -5z m754 -21 c13 -16 12 -17 -3 -4 -17 13 -22 21 -14 21 2 0 10 -8
17 -17z m90 -46 c-6 -8 -7 -18 -3 -22 4 -5 1 -5 -6 -1 -10 6 -10 11 -1 22 6 8
14 14 16 14 3 0 0 -6 -6 -13z m352 -64 c-7 -2 -21 -2 -30 0 -10 3 -4 5 12 5
17 0 24 -2 18 -5z m110 0 c-7 -2 -21 -2 -30 0 -10 3 -4 5 12 5 17 0 24 -2 18
-5z m-1148 -83 c-3 -5 -12 -10 -18 -10 -7 0 -6 4 3 10 19 12 23 12 15 0z m430
-40 c10 -11 16 -20 13 -20 -3 0 -13 9 -23 20 -10 11 -16 20 -13 20 3 0 13 -9
23 -20z m-632 -7 c-7 -2 -21 -2 -30 0 -10 3 -4 5 12 5 17 0 24 -2 18 -5z m678
-30 c13 -16 12 -17 -3 -4 -17 13 -22 21 -14 21 2 0 10 -8 17 -17z"/>
<path d="M5530 2161 c-52 -28 -81 -64 -87 -108 -4 -32 0 -45 22 -71 32 -38 59
-41 115 -12 45 23 47 30 29 141 -13 77 -20 81 -79 50z"/>
<path d="M2345 2120 c3 -5 10 -10 16 -10 5 0 9 5 9 10 0 6 -7 10 -16 10 -8 0
-12 -4 -9 -10z"/>
<path d="M2210 2081 c0 -5 5 -13 10 -16 6 -3 10 -2 10 4 0 5 -4 13 -10 16 -5
3 -10 2 -10 -4z"/>
<path d="M1775 2024 c13 -13 27 -24 32 -24 4 0 2 5 -5 12 -17 17 -15 33 3 18
10 -9 15 -9 15 -1 0 6 -3 11 -7 12 -5 0 -20 2 -35 4 l-27 4 24 -25z"/>
<path d="M1870 2030 c0 -5 5 -10 10 -10 6 0 10 5 10 10 0 6 -4 10 -10 10 -5 0
-10 -4 -10 -10z"/>
<path d="M1835 2010 c3 -5 8 -10 11 -10 2 0 4 5 4 10 0 6 -5 10 -11 10 -5 0
-7 -4 -4 -10z"/>
<path d="M2110 1991 c0 -5 7 -12 16 -15 14 -5 15 -4 4 9 -14 17 -20 19 -20 6z"/>
</g>
</svg>
